<svg xmlns="http://www.w3.org/2000/svg" viewBox="0 0 166.55 70.35"><defs><style>.cls-1{fill:#f26522;}.cls-2{font-size:47.39px;fill:#414042;font-family:RaspoutineMedium, Raspoutine Medium;}</style></defs><title>Asset 4</title><g id="Layer_2" data-name="Layer 2"><g id="Layer_1-2" data-name="Layer 1"><path class="cls-1" d="M129.57,4.82q3.1-2.43,6.22-4.82c.53.14,1.06.26,1.59.39-1.62,2.08-3.37,4.07-5,6.15C134,7,135.63,7.63,137.29,8a23.56,23.56,0,0,0,2.49-1.18,2.93,2.93,0,0,1,1.12.21c-.49.76-1,1.54-1.46,2.32.09.89.19,1.79.26,2.69-1.48-.06-1.8-1.65-2.68-2.51-1.68-.48-3.45-.62-5.16-1,.6,2.57,1.11,5.16,1.63,7.74a6.4,6.4,0,0,1-1.62-.46c-1-2.4-2.25-4.69-3.25-7.08a1.22,1.22,0,0,0-.76-.79c-1.21-.38-2.43-.72-3.64-1.12-.58-.18-.85-.79-1.21-1.22a1.75,1.75,0,0,1,1.77-1.1c1.37.14,2.71.5,4.08.69A2.05,2.05,0,0,0,129.57,4.82Z"/><path class="cls-1" d="M143.37,8.14c4.35.57,8.75,1.63,12.47,4a13.06,13.06,0,0,1,5.54,7,15.57,15.57,0,0,1-.56,10,31.74,31.74,0,0,1-5.72,9.45A73.68,73.68,0,0,1,165,62a67.43,67.43,0,0,1,1.59,8.32,84.83,84.83,0,0,0-14.19-28.82,55.9,55.9,0,0,1-21.43,12.81c-8.83,2.92-18.49,3.89-27.6,1.69-1.77-.46-3.68-.87-5.08-2.13a4.58,4.58,0,0,1-1.56-3.76,7.11,7.11,0,0,1,2.75-4.84c-.79,1.25-1.63,2.63-1.44,4.17a4,4,0,0,0,2.58,3,22.09,22.09,0,0,0,6.53,1.45c9.31.91,18.75-1.11,27.28-4.87a52,52,0,0,0,15.33-10.19c.31-.2-.09-.47-.2-.64C144.45,32.69,138.2,28.06,131,25.91A23.89,23.89,0,0,0,121.7,25a24.91,24.91,0,0,1,14.39-1c6.75,1.61,12.43,6.13,16.67,11.48,2.09-2.8,3.91-6.06,3.94-9.64a8.92,8.92,0,0,0-3.43-7c-3.16-2.55-7.22-3.62-11.16-4.29A9.58,9.58,0,0,1,140.89,11,27.21,27.21,0,0,1,143.37,8.14Z"/><text class="cls-2" transform="translate(0 48.17)">Hotels</text></g></g></svg>