<svg xmlns="http://www.w3.org/2000/svg" viewBox="0 0 69.86 69.86"><defs><style>.cls-1{fill:#f26522;}</style></defs><title>Asset 5</title><g id="Layer_2" data-name="Layer 2"><g id="Layer_1-2" data-name="Layer 1"><path class="cls-1" d="M16,69.86h27c1.62-1.33,3.2-2.71,4.69-4.19.48-.3-.13-.72-.3-1C39.42,56.15,29.7,49,18.47,45.62A36.67,36.67,0,0,0,4.05,44.14a38.59,38.59,0,0,1,22.37-1.58c10.49,2.49,19.31,9.52,25.91,17.83,3.25-4.34,6.08-9.41,6.13-15a13.86,13.86,0,0,0-5.34-10.89c-4.91-4-11.22-5.63-17.34-6.67-.75-1.72-1.87-3.46-1.9-5.37,1-1.72,2.64-2.93,3.86-4.48,6.75.88,13.6,2.52,19.38,6.27A20.25,20.25,0,0,1,65.73,35.1c1.62,5.08.92,10.6-.88,15.53A48.86,48.86,0,0,1,56,65.32c.85,1.28,1.67,2.57,2.45,3.89a16,16,0,0,0,11.45-15.3V16A16,16,0,0,0,53.91,0H16A16,16,0,0,0,0,16v38A16,16,0,0,0,16,69.86ZM8.84,12.42c2.13.21,4.22.77,6.34,1.06a3.09,3.09,0,0,0,1.11-.66Q21.11,9.06,26,5.34c.82.21,1.64.41,2.47.6-2.52,3.24-5.23,6.33-7.76,9.56,2.57.66,5,1.69,7.62,2.32,1.4-.35,2.54-1.33,3.87-1.83a4.63,4.63,0,0,1,1.75.32c-.77,1.19-1.53,2.39-2.27,3.61.14,1.39.29,2.78.39,4.18-2.29-.09-2.79-2.57-4.16-3.9-2.61-.74-5.36-1-8-1.53.93,4,1.72,8,2.54,12A9.73,9.73,0,0,1,19.86,30c-1.55-3.73-3.5-7.28-5-11a1.89,1.89,0,0,0-1.19-1.21C11.74,17.16,9.84,16.63,8,16c-.9-.29-1.32-1.23-1.89-1.91A2.75,2.75,0,0,1,8.84,12.42Z"/></g></g></svg>